<svg id="Layer_1" data-name="Layer 1" xmlns="http://www.w3.org/2000/svg" viewBox="0 0 1036 296"><defs><style>.cls-1{fill:#15334f;}.cls-2{fill:#ff841f;}.cls-3{fill:#007aff;}</style></defs><title>horizontal-color</title><path class="cls-1" d="M793.64,105.56h10.64v9.12H771.49v-9.12h12.74c-1.14-2.94-2.38-5.89-3.8-8.74l9.31-2.57A81.38,81.38,0,0,1,793.64,105.56Zm-10.17,76.69h-9.31V147.47h27.08v33.45H792V177h-8.55Zm17.3-49.13v8.74H774.44v-8.74Zm.28-13.4v8.65H774.54v-8.65Zm-9,36.59h-8.55v11.78H792Zm32.69-61.68v5.9h11.5v-5.9h9.22v5.9h9.88v7.6h-9.88v4.27h8.27v7.23h-8.27v4.27h11.69v7.8h-22v4.56h18.15v23.47h5v8h-5v4.56c0,6.47-3,9.79-8.93,9.79h-7.41L834.79,174l6.84.39c1.8,0,2.76-1.34,2.76-4v-2.66H816.73v14.45h-8.84V167.71h-4.56v-8h4.56V136.26H826V131.7H804.47v-7.8h11v-4.27h-7.61V112.4h7.61v-4.27h-9.7v-7.6h9.7v-5.9Zm-8,49.23v4.56H826v-4.56ZM826,159.73v-4.56h-9.22v4.56Zm10.26-47.33v-4.27h-11.5v4.27Zm0,11.5v-4.27h-11.5v4.27Zm8.18,20h-9.32v4.56h9.32Zm0,15.87v-4.56h-9.32v4.56Z"/><path class="cls-1" d="M885.35,148.61h63.2c-.57,15.87-1.9,25.37-3.8,28.51s-5.71,4.75-11.22,5h-6.36l-2-5.89H868.63V159.35h9.5v8.74h14v-11.5H875.75V101.67h21.76a34.87,34.87,0,0,0,2.57-7.32l10.17,1.42a30.08,30.08,0,0,1-2.57,5.9H940v30.69H885.35v4.09h67v7.79h-67Zm44.95-39.53H885.35v4.27H930.3Zm-44.95,15.58H930.3v-4.37H885.35Zm48.18,48.66a4.23,4.23,0,0,0,3.8-2.57c.57-1.71,1-6.46,1.24-14.16H901.79v11.5h14v-8.55h9.5v13.59C928.21,173.22,931,173.32,933.53,173.32Z"/><path class="cls-1" d="M257.11,156.41c.51,3.57,1.5,6.25,3,8q4.07,4.83,13.94,4.83a30,30,0,0,0,9.6-1.27q7-2.44,7-9.09a6.71,6.71,0,0,0-3.43-6q-3.43-2.07-10.87-3.66l-8.48-1.86q-12.5-2.76-17.17-6-7.91-5.43-7.91-16.95A22.5,22.5,0,0,1,250.51,107q7.74-7,22.75-7,12.53,0,21.37,6.56t9.27,19H288.18q-.44-7.06-6.31-10a21.68,21.68,0,0,0-9.75-2q-6.48,0-10.35,2.55a8.07,8.07,0,0,0-3.86,7.11,6.71,6.71,0,0,0,3.81,6.27q2.44,1.38,10.4,3.24L285.86,136q9,2.13,13.54,5.68,7,5.53,7,16a22.44,22.44,0,0,1-8.29,17.82q-8.3,7.09-23.44,7.09-15.45,0-24.32-7t-8.86-19.2Z"/><path class="cls-1" d="M364.32,128.89q7.08,7.5,7.08,22,0,15.3-6.92,23.32a22.47,22.47,0,0,1-17.83,8,18.73,18.73,0,0,1-11.55-3.45,22.53,22.53,0,0,1-4.92-5.58v30.17h-15V122.68h14.5v8.55a24.48,24.48,0,0,1,5.24-5.95A19.36,19.36,0,0,1,347,121.41,22.92,22.92,0,0,1,364.32,128.89ZM352.7,139.78q-3.09-5.15-10-5.15-8.31,0-11.43,7.81A29.42,29.42,0,0,0,329.65,153q0,10.08,5.42,14.18a12.42,12.42,0,0,0,7.62,2.39,11.08,11.08,0,0,0,9.74-4.89q3.36-4.89,3.35-13A22.61,22.61,0,0,0,352.7,139.78Z"/><path class="cls-1" d="M419.17,123.85a23.63,23.63,0,0,1,10,8.57,28.55,28.55,0,0,1,4.61,12,74.23,74.23,0,0,1,.5,11.49H392.12q.36,8.7,6.06,12.21a15.37,15.37,0,0,0,8.34,2.18A11.75,11.75,0,0,0,418,163.63H433.5q-.62,5.16-5.62,10.46-7.77,8.44-21.78,8.45a31.55,31.55,0,0,1-20.39-7.12q-8.83-7.12-8.83-23.18,0-15,8-23.07t20.71-8A32.94,32.94,0,0,1,419.17,123.85Zm-22.64,13.08a15.71,15.71,0,0,0-4,9h26.08q-.4-6-4-9.15a13.27,13.27,0,0,0-9-3.12C401.68,133.62,398.66,134.72,396.53,136.93Z"/><path class="cls-1" d="M464.8,145.36a23.79,23.79,0,0,0,6-1.33q3.27-1.38,3.27-4.3,0-3.55-2.51-4.91t-7.35-1.36q-5.43,0-7.7,2.66a11,11,0,0,0-2.15,5.31H439.79A22.2,22.2,0,0,1,444.06,129q6-7.65,20.7-7.65a36.92,36.92,0,0,1,17,3.77q7.42,3.77,7.42,14.23v26.56q0,2.76.1,6.69a8.39,8.39,0,0,0,.91,4,5.37,5.37,0,0,0,2.23,1.75v2.23H475.91a16.13,16.13,0,0,1-1-3.29c-.18-1-.32-2.19-.43-3.5a31.58,31.58,0,0,1-7.26,5.79,22.06,22.06,0,0,1-11.12,2.81,19.19,19.19,0,0,1-13.06-4.49q-5.16-4.48-5.15-12.72,0-10.68,8.29-15.45,4.54-2.61,13.38-3.72Zm9.25,7.06a16.32,16.32,0,0,1-2.93,1.46,24,24,0,0,1-4.07,1l-3.44.64a22.36,22.36,0,0,0-7,2.07,6.92,6.92,0,0,0-3.58,6.43q0,3.87,2.19,5.6a8.28,8.28,0,0,0,5.31,1.73,15.84,15.84,0,0,0,9.14-2.87q4.19-2.86,4.34-10.47Z"/><path class="cls-1" d="M500.43,102.55H515.3v42.23L534.4,123h18.82l-20.75,21.56L554,180.57H535.6l-14-24.73-6.27,6.52v18.21H500.43Z"/><path class="cls-1" d="M563.29,180.57V102.28h16.25v29.85H610V102.28h16.25v78.29H610V145.63H579.54v34.94Z"/><path class="cls-1" d="M652,122.68v34.9a18.41,18.41,0,0,0,1.16,7.43q2.07,4.41,8.09,4.41,7.71,0,10.57-6.27a22.88,22.88,0,0,0,1.48-9v-31.5h15.35v57.89H674V172.4c-.14.17-.5.7-1.06,1.59a11.05,11.05,0,0,1-2,2.34,21,21,0,0,1-6.86,4.35,23.23,23.23,0,0,1-7.75,1.17q-12.82,0-17.27-9.24-2.49-5.1-2.49-15v-34.9Z"/><path class="cls-1" d="M749.54,129.64q6.5,8.24,6.5,21.24,0,13.5-6.41,22.36t-17.88,8.88q-7.21,0-11.59-2.87a23.33,23.33,0,0,1-5.66-5.95v7.27H699.58V102.39h15.13v27.83a22.27,22.27,0,0,1,6.37-6.16,19,19,0,0,1,10.47-2.65Q743.06,121.41,749.54,129.64Zm-12.65,35.27q3.27-4.74,3.27-12.43a27.82,27.82,0,0,0-1.61-10.2q-3.06-7.65-11.25-7.65t-11.4,7.49a27.71,27.71,0,0,0-1.61,10.3q0,7.44,3.32,12.33t10.12,4.88A10.5,10.5,0,0,0,736.89,164.91Z"/><path class="cls-2" d="M210.9,169.33c0,14.45-3.29,22.36-14.22,26V212l-19-14.26c-.8,0-1.55,0-2.38,0-25.06,0-33.56-5.52-35.23-21.44,22.09-.26,35.4-3.56,44.2-10.9A33.05,33.05,0,0,0,194.8,149a54.18,54.18,0,0,0,1.39-5.83C207.54,146.72,210.9,154.66,210.9,169.33Z"/><path class="cls-3" d="M190.74,126.83a86.54,86.54,0,0,1-1.1,14.92c-3.53,20.11-16.43,27.55-49.85,27.91h-2.6c-1.24,0-2.37,0-3.57-.06l-28.55,21.47V165.94c-16.47-5.45-21.42-17.35-21.42-39.11C83.65,94.71,94.36,84,137.19,84S190.74,94.71,190.74,126.83Z"/></svg>